<svg xmlns="http://www.w3.org/2000/svg" xmlns:xlink="http://www.w3.org/1999/xlink" width="500" zoomAndPan="magnify" viewBox="0 0 375 374.999991" height="500" preserveAspectRatio="xMidYMid meet" version="1.0"><defs><clipPath id="663cca8ca8"><path d="M 6 64 L 369.335938 64 L 369.335938 312.136719 L 6 312.136719 Z M 6 64 " clip-rule="nonzero"/></clipPath></defs><path fill="#ffffff" d="M 292.816406 171.585938 L 292.816406 179.097656 L 76.769531 179.097656 L 75.875 171.585938 L 195.578125 171.585938 L 79.457031 170.910156 C 79.457031 170.910156 86.492188 156.40625 98.617188 156.40625 C 102.484375 156.40625 104.648438 156.71875 105.8125 157.136719 C 104.898438 150.875 103.089844 132.921875 109.222656 116.953125 C 116.804688 97.222656 130.4375 82.046875 130.4375 82.046875 C 130.4375 82.046875 128.921875 69.90625 134.984375 68.386719 C 141.046875 66.867188 150.136719 74.457031 150.136719 74.457031 C 150.136719 74.457031 162.261719 71.425781 181.964844 71.425781 C 201.671875 71.425781 210.761719 75.976562 210.761719 75.976562 C 210.761719 75.976562 218.339844 65.355469 225.914062 68.386719 C 233.496094 71.417969 230.460938 83.5625 230.460938 83.5625 C 230.460938 83.5625 247.128906 92.664062 254.710938 110.875 C 262.289062 129.085938 262.289062 156.398438 262.289062 156.398438 C 262.289062 156.398438 272.898438 153.367188 278.960938 159.429688 L 288.710938 171.574219 L 292.816406 171.574219 Z M 292.816406 171.585938 " fill-opacity="1" fill-rule="nonzero"/><path fill="#fdf5d8" d="M 222.886719 82.046875 C 225.914062 71.425781 221.039062 69.097656 221.039062 69.097656 L 230.179688 72.894531 C 231.953125 77.519531 230.460938 83.5625 230.460938 83.5625 C 230.460938 83.5625 247.128906 92.664062 254.710938 110.875 C 262.289062 129.085938 262.289062 156.398438 262.289062 156.398438 C 262.289062 156.398438 272.898438 153.367188 278.960938 159.429688 L 289.148438 172.117188 L 199.566406 171.59375 C 257.289062 160.738281 222.886719 82.046875 222.886719 82.046875 Z M 222.886719 82.046875 " fill-opacity="1" fill-rule="nonzero"/><path fill="#fce64d" d="M 82.691406 179.101562 L 292.609375 179.101562 L 292.609375 308.179688 L 75.875 308.179688 L 75.875 188.414062 L 12.214844 221.671875 L 7.671875 215.601562 L 72.613281 174.824219 L 75.871094 173.882812 L 75.871094 171.585938 L 76.132812 173.800781 L 83.597656 171.640625 Z M 296.476562 173.359375 L 294.765625 184.597656 L 363.613281 222.976562 L 368.386719 218.632812 Z M 296.476562 173.359375 " fill-opacity="1" fill-rule="nonzero"/><path fill="#e5c928" d="M 280.484375 287.863281 L 280.484375 171.585938 L 292.609375 171.585938 L 292.609375 308.171875 L 75.875 308.171875 L 75.875 297.550781 L 270.8125 297.550781 C 276.152344 297.550781 280.484375 293.210938 280.484375 287.863281 Z M 280.484375 287.863281 " fill-opacity="1" fill-rule="nonzero"/><g clip-path="url(#663cca8ca8)"><path fill="#6e4139" d="M 368.871094 216.042969 C 368.402344 214.160156 367.222656 212.589844 365.558594 211.601562 L 295.886719 170.320312 C 294.773438 169.660156 293.507812 169.316406 292.21875 169.316406 L 290.355469 169.316406 C 290.179688 166.828125 289.464844 163.480469 287.15625 160.863281 C 285.832031 159.363281 283.496094 157.601562 279.675781 157.242188 C 278.113281 155.550781 274.8125 152.660156 270.378906 152.460938 C 268.625 152.378906 266.929688 152.726562 265.289062 153.457031 C 268.195312 111.175781 240.167969 86.925781 233 81.457031 C 233.382812 78.472656 233.613281 72.917969 230.917969 68.910156 C 229.355469 66.597656 227.011719 65.121094 224.140625 64.640625 C 215.941406 63.277344 210.828125 68.625 208.597656 71.757812 C 178.351562 64.664062 156.773438 69.773438 150.296875 71.722656 C 147.484375 68.792969 141.097656 63.152344 135 64.683594 C 127.964844 66.449219 126.84375 76.496094 126.667969 80.125 C 102.460938 108.390625 100.9375 139.605469 101.6875 153.464844 C 100.464844 152.925781 99.09375 152.527344 97.585938 152.460938 C 93.886719 152.296875 90.382812 153.972656 87.148438 157.449219 C 85.902344 157.757812 83.875 158.4375 81.902344 159.800781 C 78.644531 162.058594 76.820312 165.375 76.53125 169.324219 C 75.804688 169.34375 75.148438 169.617188 74.640625 170.066406 C 74.425781 170.171875 74.203125 170.28125 74 170.40625 L 9.800781 210.414062 C 6.832031 212.265625 5.617188 215.96875 6.914062 219.222656 C 7.671875 221.125 9.210938 222.621094 11.132812 223.324219 C 13.054688 224.023438 15.191406 223.867188 16.996094 222.910156 L 73.59375 192.59375 L 73.59375 304.753906 C 73.59375 308.730469 76.828125 311.96875 80.796875 311.96875 L 181.753906 311.96875 C 181.980469 312.019531 182.21875 312.058594 182.460938 312.058594 C 182.703125 312.058594 182.9375 312.019531 183.167969 311.96875 L 289.191406 311.96875 C 293.160156 311.96875 296.394531 308.730469 296.394531 304.753906 L 296.394531 188.28125 L 357.976562 224.472656 C 361.375 226.464844 365.777344 225.34375 367.804688 221.964844 L 368.0625 221.539062 C 369.0625 219.871094 369.34375 217.925781 368.871094 216.042969 Z M 275.742188 161.96875 C 276.308594 162.765625 277.226562 163.238281 278.207031 163.238281 C 280.195312 163.238281 281.632812 163.769531 282.605469 164.859375 C 283.660156 166.039062 284.101562 167.789062 284.261719 169.308594 L 255.417969 169.308594 C 256.058594 164.417969 260.890625 163.378906 261.972656 163.207031 C 261.988281 163.207031 262.007812 163.199219 262.023438 163.191406 C 262.128906 163.179688 262.230469 163.148438 262.332031 163.121094 C 262.40625 163.097656 262.480469 163.082031 262.546875 163.058594 C 262.648438 163.023438 262.738281 162.980469 262.835938 162.933594 C 262.902344 162.90625 262.96875 162.875 263.035156 162.839844 C 263.128906 162.789062 263.210938 162.722656 263.296875 162.664062 C 263.359375 162.617188 263.421875 162.582031 263.476562 162.535156 C 263.554688 162.46875 263.636719 162.390625 263.710938 162.308594 C 263.753906 162.265625 263.800781 162.226562 263.84375 162.183594 C 265.988281 159.683594 268.035156 158.457031 270.089844 158.523438 C 273.273438 158.648438 275.726562 161.953125 275.742188 161.96875 Z M 131.964844 83.289062 C 132.441406 82.734375 132.707031 82.027344 132.714844 81.296875 C 132.730469 77.195312 134.042969 71.191406 136.480469 70.578125 C 139.648438 69.773438 144.972656 74.671875 147.058594 77.164062 C 147.882812 78.152344 149.238281 78.515625 150.445312 78.066406 C 150.503906 78.042969 152.058594 77.484375 154.910156 76.796875 C 155.941406 81.5625 157.9375 87.367188 161.511719 87.367188 C 165.332031 87.367188 166.746094 80.125 167.261719 74.769531 C 169.3125 74.570312 171.519531 74.414062 173.886719 74.324219 C 174.417969 80.609375 176.058594 90.398438 181.207031 90.398438 C 185.964844 90.398438 188.324219 81.445312 189.429688 74.769531 C 191.136719 74.921875 192.898438 75.121094 194.695312 75.367188 C 194.828125 80.640625 195.710938 87.359375 199.394531 87.359375 C 202.828125 87.359375 204.800781 82.003906 205.871094 77.359375 C 206.988281 77.609375 208.125 77.875 209.265625 78.160156 C 210.636719 78.5 212.066406 77.84375 212.707031 76.589844 C 212.855469 76.304688 216.410156 69.507812 223.144531 70.625 C 224.382812 70.828125 225.25 71.359375 225.886719 72.296875 C 227.75 75.054688 227.136719 80.34375 226.746094 82.152344 C 226.472656 83.382812 226.988281 84.652344 228.042969 85.347656 C 229.566406 86.347656 264.710938 110.136719 258.777344 157.785156 C 257.605469 158.175781 256.132812 158.796875 254.695312 159.800781 C 251.4375 162.058594 249.613281 165.371094 249.324219 169.316406 L 117.578125 169.316406 C 117.394531 166.828125 116.6875 163.480469 114.378906 160.863281 C 113.210938 159.535156 111.226562 158 108.125 157.417969 C 107.183594 148.351562 105.59375 113.464844 131.964844 83.289062 Z M 89.1875 163.214844 C 89.917969 163.113281 90.578125 162.742188 91.058594 162.183594 C 93.203125 159.675781 95.300781 158.449219 97.304688 158.523438 C 100.496094 158.648438 102.949219 161.953125 102.960938 161.96875 C 102.992188 162.011719 103.027344 162.042969 103.066406 162.078125 C 103.160156 162.199219 103.265625 162.316406 103.375 162.417969 C 103.433594 162.476562 103.492188 162.523438 103.558594 162.574219 C 103.667969 162.664062 103.789062 162.742188 103.914062 162.816406 C 103.980469 162.855469 104.046875 162.898438 104.121094 162.933594 C 104.273438 163.007812 104.4375 163.066406 104.597656 163.113281 C 104.640625 163.125 104.6875 163.148438 104.730469 163.15625 C 104.945312 163.207031 105.164062 163.230469 105.386719 163.238281 C 105.402344 163.238281 105.414062 163.246094 105.421875 163.246094 C 107.410156 163.246094 108.847656 163.777344 109.820312 164.867188 C 110.875 166.046875 111.316406 167.796875 111.476562 169.316406 L 82.632812 169.316406 C 83.273438 164.425781 88.105469 163.378906 89.1875 163.214844 Z M 14.148438 217.546875 C 13.757812 217.753906 13.394531 217.679688 13.21875 217.613281 C 13.042969 217.546875 12.710938 217.378906 12.546875 216.964844 C 12.34375 216.449219 12.535156 215.859375 13.003906 215.570312 L 73.609375 177.8125 L 73.609375 185.707031 Z M 79.664062 304.753906 L 79.664062 175.386719 C 79.664062 175.386719 79.671875 175.386719 79.671875 175.386719 L 179.441406 175.386719 L 179.441406 305.898438 L 80.804688 305.898438 C 80.179688 305.898438 79.664062 305.382812 79.664062 304.753906 Z M 290.332031 304.753906 C 290.332031 305.390625 289.816406 305.898438 289.191406 305.898438 L 185.503906 305.898438 L 185.503906 175.386719 L 252.433594 175.386719 C 252.433594 175.386719 252.441406 175.386719 252.441406 175.386719 C 252.441406 175.386719 252.449219 175.386719 252.449219 175.386719 L 290.332031 175.386719 Z M 362.871094 218.402344 L 362.613281 218.832031 C 362.289062 219.363281 361.59375 219.546875 361.050781 219.230469 L 296.394531 181.226562 L 296.394531 177.664062 L 362.472656 216.824219 C 362.824219 217.039062 362.957031 217.355469 362.996094 217.53125 C 363.039062 217.703125 363.082031 218.050781 362.871094 218.402344 Z M 203.941406 116.199219 C 203.941406 113.683594 205.972656 111.648438 208.484375 111.648438 C 210.996094 111.648438 213.03125 113.683594 213.03125 116.199219 C 213.03125 118.714844 210.996094 120.75 208.484375 120.75 C 205.972656 120.75 203.941406 118.707031 203.941406 116.199219 Z M 146.351562 116.199219 C 146.351562 113.683594 148.382812 111.648438 150.894531 111.648438 C 153.40625 111.648438 155.441406 113.683594 155.441406 116.199219 C 155.441406 118.714844 153.40625 120.75 150.894531 120.75 C 148.382812 120.75 146.351562 118.707031 146.351562 116.199219 Z M 176.539062 123.65625 C 175.808594 122.925781 176.109375 121.695312 177.089844 121.378906 C 178.429688 120.9375 180.332031 120.632812 182.371094 121.332031 C 183.328125 121.664062 183.617188 122.898438 182.902344 123.613281 L 180.671875 125.847656 C 180.132812 126.386719 179.261719 126.386719 178.734375 125.847656 Z M 164.539062 145.035156 C 164.539062 143.359375 165.886719 142 167.558594 142 C 168.492188 141.996094 176.664062 141.714844 176.664062 134.410156 C 176.664062 132.738281 178.019531 131.378906 179.691406 131.378906 C 181.363281 131.378906 182.71875 132.738281 182.71875 134.410156 C 182.738281 135.660156 183.285156 142 191.808594 142 C 193.480469 142 194.835938 143.359375 194.835938 145.035156 C 194.835938 146.707031 193.480469 148.066406 191.808594 148.066406 C 185.582031 148.066406 181.90625 145.726562 179.75 142.988281 C 176.40625 146.847656 170.984375 148.066406 167.558594 148.066406 C 165.894531 148.066406 164.539062 146.707031 164.539062 145.035156 Z M 222.453125 126.660156 C 221.699219 125.164062 222.3125 123.339844 223.808594 122.585938 L 235.933594 116.515625 C 237.433594 115.765625 239.246094 116.378906 240 117.875 C 240.75 119.371094 240.140625 121.195312 238.644531 121.945312 L 226.519531 128.015625 C 226.082031 128.238281 225.621094 128.332031 225.164062 128.332031 C 224.050781 128.339844 222.984375 127.722656 222.453125 126.660156 Z M 222.695312 141.75 C 223.667969 140.386719 225.5625 140.070312 226.921875 141.042969 L 237.53125 148.632812 C 238.894531 149.605469 239.210938 151.503906 238.238281 152.867188 C 237.648438 153.691406 236.714844 154.136719 235.769531 154.136719 C 235.160156 154.136719 234.546875 153.949219 234.011719 153.566406 L 223.402344 145.976562 C 222.039062 145.011719 221.722656 143.117188 222.695312 141.75 Z M 238.804688 131.371094 C 240.476562 131.371094 241.832031 132.730469 241.832031 134.40625 C 241.832031 136.078125 240.476562 137.4375 238.804688 137.4375 L 226.679688 137.4375 C 225.007812 137.4375 223.652344 136.078125 223.652344 134.40625 C 223.652344 132.730469 225.007812 131.371094 226.679688 131.371094 Z M 121.664062 117.875 C 122.417969 116.378906 124.238281 115.765625 125.730469 116.515625 L 137.855469 122.585938 C 139.351562 123.339844 139.964844 125.164062 139.210938 126.660156 C 138.683594 127.722656 137.605469 128.339844 136.5 128.339844 C 136.046875 128.339844 135.582031 128.238281 135.144531 128.023438 L 123.019531 121.953125 C 121.519531 121.195312 120.914062 119.371094 121.664062 117.875 Z M 138.960938 141.75 C 139.933594 143.117188 139.617188 145.011719 138.253906 145.984375 L 127.648438 153.574219 C 127.109375 153.957031 126.5 154.144531 125.886719 154.144531 C 124.945312 154.144531 124.007812 153.699219 123.417969 152.875 C 122.445312 151.507812 122.761719 149.613281 124.125 148.640625 L 134.734375 141.050781 C 136.097656 140.070312 137.988281 140.386719 138.960938 141.75 Z M 119.824219 134.40625 C 119.824219 132.730469 121.179688 131.371094 122.851562 131.371094 L 134.976562 131.371094 C 136.648438 131.371094 138.003906 132.730469 138.003906 134.40625 C 138.003906 136.078125 136.648438 137.4375 134.976562 137.4375 L 122.859375 137.4375 C 121.1875 137.441406 119.824219 136.085938 119.824219 134.40625 Z M 119.824219 134.40625 " fill-opacity="1" fill-rule="nonzero"/></g></svg>